<?xml version="1.0" standalone="no"?>
<!DOCTYPE svg PUBLIC "-//W3C//DTD SVG 20010904//EN"
 "http://www.w3.org/TR/2001/REC-SVG-20010904/DTD/svg10.dtd">
<svg version="1.0" xmlns="http://www.w3.org/2000/svg"
 width="256.000000pt" height="169.000000pt" viewBox="0 0 256.000000 169.000000"
 preserveAspectRatio="xMidYMid meet">

<g transform="translate(0.000000,169.000000) scale(0.100000,-0.100000)"
fill="#000" stroke="none">
<path d="M1780 1665 c-356 -71 -592 -346 -630 -734 -5 -51 -10 -94 -12 -96 -2
-2 -80 182 -174 408 -152 365 -174 412 -194 412 -19 0 -31 -24 -96 -195 -42
-107 -76 -202 -76 -210 -1 -8 62 -171 140 -361 78 -190 142 -351 142 -357 0
-9 -76 -12 -285 -12 l-285 0 -17 -43 c-9 -23 -47 -104 -85 -179 -77 -152 -137
-228 -181 -228 -20 0 -27 -5 -27 -20 0 -20 7 -20 285 -20 265 0 285 1 285 18
0 13 -10 18 -47 20 -51 3 -107 24 -136 50 -56 50 -80 180 -55 297 l13 60 280
3 280 2 49 -121 c75 -185 73 -266 -7 -287 -17 -4 -33 -16 -35 -25 -3 -16 23
-17 333 -17 315 0 336 1 333 18 -2 12 -16 19 -46 23 -30 4 -52 15 -71 35 -30
31 -77 104 -67 104 4 0 30 -18 58 -41 97 -76 247 -139 371 -154 52 -7 57 -6
57 12 0 15 -13 24 -56 37 -110 35 -187 149 -225 331 -31 150 -44 424 -31 631
27 396 100 556 277 605 25 7 35 16 35 29 0 23 -8 23 -100 5z"/>
<path d="M2020 1662 c0 -15 9 -22 33 -27 166 -36 272 -134 380 -352 36 -73 57
-103 69 -103 10 0 18 1 19 3 0 1 8 83 17 181 l17 179 -35 23 c-88 59 -233 98
-403 110 -94 7 -97 6 -97 -14z"/>
<path d="M2480 499 c0 -26 -57 -150 -96 -210 -74 -113 -162 -180 -292 -224
-85 -29 -97 -55 -25 -55 134 0 327 48 435 109 56 30 54 19 37 216 -13 168 -15
175 -39 175 -11 0 -20 -5 -20 -11z"/>
</g>
</svg>
